<svg xmlns="http://www.w3.org/2000/svg" viewBox="0 0 80 80"><rect width="80" height="80" rx="25" style="fill:#2769b2"/><polygon points="25 0 55 80 72.66 72.66 80 55 0 25 7.34 7.34 25 0" style="fill:#669ed5"/><path d="M55,5A20,20,0,0,1,75,25V55A20,20,0,0,1,55,75H25A20,20,0,0,1,5,55V25A20,20,0,0,1,25,5H55m0-5H25A25.07,25.07,0,0,0,0,25V55A25.07,25.07,0,0,0,25,80H55A25.07,25.07,0,0,0,80,55V25A25.07,25.07,0,0,0,55,0Z" transform="translate(0 0)" style="fill:#2769b2"/><circle cx="40" cy="40" r="17.5" style="fill:#2769b2"/><circle cx="40" cy="40" r="12.5" style="fill:#669ed5"/><circle cx="40" cy="40" r="7.5" style="fill:#fff"/></svg>